<?xml version="1.0" standalone="no"?>
<!DOCTYPE svg PUBLIC "-//W3C//DTD SVG 20010904//EN"
 "http://www.w3.org/TR/2001/REC-SVG-20010904/DTD/svg10.dtd">
<svg version="1.0" xmlns="http://www.w3.org/2000/svg"
 width="1080.000000pt" height="1080.000000pt" viewBox="0 0 1080.000000 1080.000000"
 preserveAspectRatio="xMidYMid meet">
<metadata>
Created by potrace 1.11, written by Peter Selinger 2001-2013
</metadata>
<g transform="translate(0.000000,1080.000000) scale(0.100000,-0.100000)"
fill="#000000" stroke="none">
<path d="M5085 10509 c-775 -49 -1545 -280 -2216 -665 -852 -488 -1539 -1202
-1999 -2076 l-72 -138 306 0 306 0 0 200 0 200 365 0 365 0 0 -355 0 -355
-275 0 -275 0 0 -375 0 -375 305 0 305 0 0 43 c0 136 54 473 115 722 388 1578
1664 2789 3245 3079 126 23 356 52 460 58 32 2 14 7 -65 16 -264 31 -590 39
-870 21z"/>
<path d="M4237 9399 c-31 -34 -14 -69 59 -127 36 -29 70 -52 75 -52 23 0 5
-28 -29 -48 -21 -11 -46 -30 -56 -40 -16 -19 -16 -21 7 -48 l25 -28 68 31
c127 56 128 56 240 50 129 -8 144 -3 144 57 0 78 -54 106 -202 106 -52 0 -88
4 -88 10 0 6 -12 10 -27 10 -39 1 -102 31 -142 68 -38 37 -49 38 -74 11z m71
-44 c60 -51 139 -77 247 -82 55 -3 115 -9 133 -15 40 -12 66 -49 57 -79 -7
-20 -10 -21 -105 -14 -108 8 -170 -4 -262 -51 -46 -23 -68 -24 -68 -4 0 5 29
28 65 51 36 23 65 46 65 50 0 5 -21 19 -46 31 -58 27 -150 110 -140 126 11 17
21 15 54 -13z"/>
<path d="M5210 9320 c0 -5 5 -10 10 -10 6 0 10 5 10 10 0 6 -4 10 -10 10 -5 0
-10 -4 -10 -10z"/>
<path d="M4495 8996 c-98 -22 -286 -87 -337 -116 -30 -17 -54 -11 -68 15 -10
19 -21 25 -46 25 -37 0 -44 -12 -44 -74 0 -144 80 -194 194 -121 68 43 192
104 287 140 160 61 260 23 313 -118 25 -66 19 -220 -12 -297 -43 -109 -166
-233 -301 -303 -63 -34 -185 -79 -244 -92 -35 -7 -43 -27 -27 -66 11 -26 17
-30 39 -26 14 3 51 11 81 17 201 41 415 159 516 284 96 118 119 189 119 361
-1 138 0 136 -63 233 -28 44 -83 91 -139 118 -64 32 -178 40 -268 20z m260
-48 c65 -33 130 -104 163 -176 22 -50 26 -70 25 -157 0 -113 -18 -177 -74
-271 -43 -71 -143 -164 -237 -219 -78 -46 -291 -121 -357 -127 -73 -6 -46 22
55 56 158 54 254 109 345 201 45 44 93 103 108 131 100 190 64 444 -74 515
-88 44 -216 15 -427 -97 -191 -102 -179 -96 -201 -84 -31 16 -51 63 -51 120 0
57 17 67 45 24 22 -34 44 -30 195 29 178 70 251 87 350 84 68 -3 95 -9 135
-29z"/>
<path d="M1430 7820 l0 -190 80 0 80 0 0 -145 0 -145 265 0 265 0 0 335 0 335
-345 0 -345 0 0 -190z"/>
<path d="M3790 7920 c0 -5 5 -10 10 -10 6 0 10 5 10 10 0 6 -4 10 -10 10 -5 0
-10 -4 -10 -10z"/>
<path d="M4000 7617 c-19 -6 -39 -16 -45 -23 -5 -7 -32 -17 -60 -24 -27 -6
-77 -18 -110 -26 -33 -8 -87 -19 -120 -25 -33 -5 -61 -12 -63 -14 -7 -7 -68
18 -88 37 -21 19 -24 19 -54 3 -27 -14 -31 -20 -25 -46 16 -70 67 -132 124
-149 29 -8 56 -1 208 56 96 36 177 63 179 61 3 -2 -150 -158 -339 -346 -375
-374 -378 -377 -350 -456 15 -45 27 -55 65 -55 20 0 35 10 55 38 40 53 135
146 187 181 54 37 173 93 243 115 68 21 232 21 292 0 58 -20 120 -65 151 -111
21 -31 25 -48 25 -112 0 -69 -3 -80 -32 -123 -18 -25 -49 -60 -69 -76 -68 -56
-201 -110 -327 -132 -34 -6 -84 -16 -110 -21 -27 -5 -59 -9 -72 -9 -33 0 -44
-19 -33 -59 l9 -34 131 7 c73 3 148 10 167 16 20 5 65 16 101 25 70 17 74 19
164 61 65 31 156 109 192 166 23 36 41 90 51 157 5 33 -6 84 -35 153 -19 48
-116 141 -173 166 -100 45 -113 47 -244 47 -115 0 -140 -3 -220 -29 -49 -16
-96 -33 -103 -39 -7 -5 -15 -8 -18 -5 -5 5 101 110 206 204 30 27 57 52 60 55
27 30 177 150 203 163 19 8 40 22 47 31 17 21 6 70 -25 111 -14 18 -25 37 -25
42 0 10 -54 33 -74 31 -6 -1 -27 -6 -46 -12z m105 -59 c45 -53 55 -88 30 -102
-47 -28 -178 -131 -255 -201 -128 -117 -361 -348 -355 -353 2 -3 35 11 72 31
141 74 264 107 398 107 144 0 237 -34 326 -117 69 -64 91 -116 91 -209 -1 -61
-6 -86 -27 -129 -77 -157 -313 -268 -604 -282 -117 -6 -123 -5 -119 13 3 15
19 20 94 31 365 48 572 199 551 401 -15 146 -152 242 -344 242 -205 0 -442
-118 -578 -288 -70 -88 -105 -85 -105 11 0 42 2 44 262 303 405 402 503 503
495 510 -4 4 -105 -29 -226 -74 -144 -53 -227 -79 -242 -75 -34 8 -74 48 -95
94 -24 54 -6 67 45 32 31 -22 44 -24 96 -20 78 6 305 63 369 92 28 13 59 24
68 24 9 1 33 -18 53 -41z"/>
<path d="M4590 7610 c0 -5 5 -10 10 -10 6 0 10 5 10 10 0 6 -4 10 -10 10 -5 0
-10 -4 -10 -10z"/>
<path d="M781 7588 c-5 -13 -26 -59 -46 -103 -176 -382 -307 -831 -391 -1342
l-5 -33 376 0 375 0 0 230 0 230 240 0 240 0 0 375 0 375 -80 0 -80 0 0 145 0
145 -310 0 -310 0 -9 -22z"/>
<path d="M1430 7475 l0 -135 70 0 70 0 0 135 0 135 -70 0 -70 0 0 -135z"/>
<path d="M1110 6330 l0 -220 230 0 230 0 0 220 0 220 -230 0 -230 0 0 -220z"/>
<path d="M1590 6320 l0 -230 -240 0 -240 0 0 -325 0 -325 586 0 586 0 -5 23
c-13 48 -48 269 -62 387 -9 69 -19 253 -22 413 l-6 287 -298 0 -299 0 0 -230z"/>
<path d="M10387 6255 c-8 -371 -38 -610 -122 -950 -316 -1284 -1229 -2348
-2444 -2844 l-123 -51 8 28 c10 34 7 188 -6 312 -13 120 -13 384 0 520 15 153
13 371 -4 480 -31 194 -46 279 -77 435 -47 238 -48 278 -11 356 17 35 54 93
83 129 68 84 81 117 68 163 -13 48 -51 77 -102 77 -37 0 -47 -6 -97 -57 -150
-157 -201 -423 -131 -693 16 -63 41 -152 55 -197 35 -114 57 -319 51 -472 -3
-68 -7 -126 -9 -128 -2 -2 -26 27 -52 65 -82 115 -122 161 -270 309 l-141 141
36 7 c24 5 50 21 77 49 34 36 45 58 68 142 15 54 29 106 31 114 2 8 12 48 24
88 27 97 54 277 47 308 -5 17 -13 24 -30 24 -24 0 -105 -56 -145 -101 l-23
-27 -84 39 c-46 21 -104 44 -129 50 -25 6 -45 16 -45 23 -2 40 -19 158 -29
193 -9 34 -15 40 -31 36 -37 -10 -82 -68 -132 -173 -28 -58 -72 -149 -99 -202
-90 -177 -105 -273 -58 -373 l22 -46 -28 -72 c-52 -131 -94 -282 -111 -397 -3
-19 -7 -46 -10 -60 -3 -14 -7 -92 -9 -175 -4 -177 7 -256 69 -515 49 -207 71
-389 61 -508 -7 -74 -6 -78 19 -104 l27 -26 -78 -8 c-113 -10 -516 2 -673 21
-865 104 -1666 473 -2295 1055 -73 68 -92 80 -121 80 l-34 0 0 -300 0 -300 95
0 95 0 0 -300 0 -300 -300 0 -300 0 0 205 0 205 -315 0 -315 0 0 -614 0 -615
82 -59 c659 -475 1444 -791 2248 -906 287 -41 419 -50 735 -50 316 0 448 9
735 50 1308 187 2508 889 3315 1939 872 1136 1231 2582 990 3990 -51 294 -51
294 -58 -10z m-3613 -1947 c22 -32 20 -57 -7 -69 -50 -23 -110 36 -77 76 19
23 66 19 84 -7z m320 -117 c28 -31 -3 -71 -56 -71 -30 0 -48 17 -48 47 0 42
72 59 104 24z"/>
<path d="M6493 6455 c-31 -22 -29 -47 7 -68 58 -35 35 -112 -88 -297 -61 -91
-240 -279 -309 -325 -48 -31 -54 -54 -23 -85 l21 -21 47 26 c132 72 320 241
413 371 l51 71 132 11 c159 14 254 17 262 10 7 -8 -69 -194 -114 -278 -139
-261 -381 -488 -653 -613 -52 -24 -102 -47 -111 -50 -23 -8 -23 -29 0 -57 16
-20 24 -22 65 -16 26 4 49 11 52 17 4 5 14 9 23 9 9 0 69 25 132 56 325 157
518 357 698 724 39 80 83 157 97 170 42 40 27 99 -43 173 -41 42 -75 48 -113
18 -38 -29 -85 -40 -223 -51 -71 -5 -130 -10 -132 -10 -1 0 9 27 23 59 l26 60
-19 33 c-24 40 -71 64 -144 72 -42 5 -60 3 -77 -9z m158 -41 c50 -25 54 -56
17 -130 -17 -35 -29 -67 -25 -70 4 -4 82 0 173 9 143 14 175 20 221 44 63 31
71 29 121 -36 37 -49 41 -80 11 -107 -12 -10 -54 -85 -95 -167 -204 -410 -428
-622 -813 -771 -51 -20 -97 -33 -102 -30 -24 14 3 34 129 96 353 174 593 450
732 840 16 46 26 86 22 90 -4 4 -90 1 -192 -7 -102 -8 -199 -15 -216 -15 -28
0 -39 -10 -90 -77 -32 -43 -87 -109 -123 -147 -94 -98 -279 -236 -316 -236
-29 0 -15 19 53 73 142 114 294 302 372 462 48 97 49 119 7 159 -20 19 -33 37
-29 41 11 11 110 -3 143 -21z"/>
<path d="M5835 6440 c-3 -5 -1 -10 4 -10 6 0 11 5 11 10 0 6 -2 10 -4 10 -3 0
-8 -4 -11 -10z"/>
<path d="M3170 6210 c0 -5 5 -10 10 -10 6 0 10 5 10 10 0 6 -4 10 -10 10 -5 0
-10 -4 -10 -10z"/>
<path d="M336 6073 c-3 -10 -13 -94 -22 -188 -22 -210 -25 -725 -5 -920 39
-392 112 -768 209 -1072 l28 -88 137 -3 137 -3 0 821 0 820 135 0 135 0 0 325
0 325 -374 0 c-348 0 -375 -1 -380 -17z"/>
<path d="M4841 5922 c-17 -32 -13 -51 13 -58 53 -13 65 -41 76 -174 6 -68 7
-127 3 -131 -21 -20 -588 -38 -606 -20 -6 6 -19 11 -28 11 -9 0 -22 7 -29 15
-15 18 -51 20 -68 3 -35 -35 21 -133 95 -169 48 -23 48 -23 233 1 47 7 118 15
157 19 86 8 86 11 17 -114 -124 -224 -340 -447 -576 -599 -32 -20 -58 -40 -58
-44 0 -4 11 -19 25 -34 27 -30 31 -29 102 9 291 154 557 426 710 723 l38 75 2
-70 c1 -38 7 -180 14 -313 6 -137 7 -247 3 -251 -5 -5 -56 7 -113 25 -115 37
-134 34 -129 -18 3 -25 13 -35 68 -65 75 -41 144 -103 167 -151 9 -19 27 -41
40 -49 22 -15 26 -15 51 3 15 11 38 41 51 68 23 47 24 48 12 189 -6 78 -16
196 -21 262 -6 66 -10 180 -10 253 l0 133 178 -1 c223 -2 267 12 254 78 -2 12
-21 35 -41 50 -20 15 -39 31 -42 35 -3 4 -10 7 -15 6 -5 -1 -21 1 -36 5 -19 6
-47 1 -95 -17 -88 -33 -192 -52 -206 -38 -6 6 -6 48 0 128 14 160 10 178 -41
210 -31 20 -58 27 -112 31 -65 4 -73 2 -83 -16z m158 -27 c57 -29 64 -51 52
-165 -13 -117 -14 -170 -3 -187 11 -17 147 2 238 33 l74 26 55 -26 c56 -25 83
-60 63 -81 -5 -6 -98 -12 -216 -15 l-207 -5 2 -200 c0 -110 9 -293 18 -406
l18 -206 -23 -46 c-34 -69 -67 -73 -88 -13 -16 43 -76 101 -153 148 -33 20
-66 39 -72 41 -6 2 -8 10 -4 19 5 14 19 12 113 -18 59 -19 112 -33 118 -31 11
5 6 385 -9 601 -7 104 -7 106 -32 106 -17 0 -27 -7 -30 -21 -10 -37 -83 -172
-139 -255 -102 -152 -232 -286 -383 -398 -89 -65 -238 -156 -255 -156 -38 0
-19 24 61 79 185 127 338 279 461 460 62 90 142 240 142 265 0 17 -12 16 -225
-11 -212 -26 -229 -27 -262 -10 -39 21 -93 82 -93 107 0 25 4 25 59 -2 37 -18
68 -23 155 -26 107 -4 483 14 519 24 17 5 18 14 12 92 -13 196 -15 204 -49
238 -17 17 -37 33 -45 35 -9 3 -11 10 -6 18 10 17 91 9 134 -14z"/>
<path d="M4020 5874 c0 -8 5 -12 10 -9 6 4 8 11 5 16 -9 14 -15 11 -15 -7z"/>
<path d="M9370 5560 c0 -5 5 -10 10 -10 6 0 10 5 10 10 0 6 -4 10 -10 10 -5 0
-10 -4 -10 -10z"/>
<path d="M8236 5485 c-19 -35 -19 -36 0 -50 10 -8 24 -15 31 -15 24 0 52 -53
63 -120 14 -82 7 -1001 -7 -1088 -8 -45 -6 -57 12 -90 18 -32 26 -37 60 -40
36 -3 43 0 75 37 l35 40 -7 128 c-4 70 -10 238 -14 372 l-7 243 24 -7 c38 -12
178 -84 228 -117 25 -17 87 -72 136 -123 110 -112 124 -121 165 -100 84 44 57
158 -59 245 -63 47 -224 129 -306 155 -33 11 -64 23 -69 27 -6 4 -17 8 -25 8
-9 0 -34 5 -55 11 l-39 11 5 205 c5 204 5 205 -18 232 -13 16 -36 33 -51 38
-125 45 -152 45 -177 -2z m162 -22 c59 -28 60 -33 55 -261 l-5 -207 137 -44
c182 -59 316 -126 395 -199 55 -51 63 -62 66 -102 6 -54 -5 -72 -41 -72 -21 0
-44 18 -106 86 -49 51 -113 107 -162 139 -82 54 -214 121 -264 133 l-26 7 7
-259 c3 -142 10 -307 16 -366 10 -118 3 -158 -32 -195 -28 -30 -53 -29 -73 1
-14 22 -15 47 -5 233 15 263 8 939 -10 1001 -11 38 -50 84 -81 94 -8 3 -10 11
-6 22 6 14 14 16 54 10 27 -3 63 -13 81 -21z"/>
<path d="M840 4610 l0 -810 125 0 125 0 0 810 0 810 -125 0 -125 0 0 -810z"/>
<path d="M1110 4610 l0 -810 310 0 310 0 0 225 0 225 330 0 330 0 0 389 0 389
-34 119 c-18 65 -42 153 -52 196 l-18 77 -588 0 -588 0 0 -810z"/>
<path d="M7235 5010 c4 -6 11 -8 16 -5 14 9 11 15 -7 15 -8 0 -12 -5 -9 -10z"/>
<path d="M2410 4608 l0 -358 160 0 160 0 -68 133 c-81 157 -149 310 -208 467
l-43 115 -1 -357z"/>
<path d="M5416 4461 c-4 -5 -2 -12 3 -15 5 -4 12 -2 15 3 4 5 2 12 -3 15 -5 4
-12 2 -15 -3z"/>
<path d="M1750 4015 l0 -215 320 0 320 0 0 215 0 215 -320 0 -320 0 0 -215z"/>
<path d="M2408 3998 l-3 -233 -327 4 -328 4 0 -217 0 -216 805 0 805 0 0 38
c0 31 -7 45 -36 73 -146 140 -433 519 -551 729 l-28 50 -167 0 -168 0 -2 -232z"/>
<path d="M7950 4160 c0 -5 5 -10 10 -10 6 0 10 5 10 10 0 6 -4 10 -10 10 -5 0
-10 -4 -10 -10z"/>
<path d="M565 3748 c47 -158 196 -506 308 -720 l72 -138 393 0 392 0 0 215 0
215 -320 0 -320 0 0 225 0 225 -266 0 -265 0 6 -22z"/>
<path d="M1110 3555 l0 -215 310 0 310 0 0 215 0 215 -310 0 -310 0 0 -215z"/>
<path d="M3380 3360 c0 -14 7 -20 22 -20 20 0 21 1 3 20 -10 11 -20 20 -22 20
-1 0 -3 -9 -3 -20z"/>
<path d="M1750 3105 l0 -215 295 0 295 0 0 -170 0 -170 315 0 315 0 0 85 0 85
195 0 195 0 0 300 0 300 -805 0 -805 0 0 -215z"/>
<path d="M971 2848 c7 -13 41 -70 76 -127 300 -486 657 -898 1093 -1261 63
-52 130 -106 148 -118 l32 -23 0 605 0 606 -295 0 -295 0 0 170 0 170 -385 0
-386 0 12 -22z"/>
<path d="M1750 2710 l0 -160 285 0 285 0 0 160 0 160 -285 0 -285 0 0 -160z"/>
<path d="M2990 2625 l0 -75 185 0 185 0 0 75 0 75 -185 0 -185 0 0 -75z"/>
<path d="M3380 2615 l0 -85 -195 0 -195 0 0 -195 0 -195 280 0 280 0 0 280 0
280 -85 0 -85 0 0 -85z"/>
</g>
</svg>
